HIERARCHY
ROOT Hips
{
 OFFSET 0.000000 0.000000 0.000000
 CHANNELS 6 Xposition Yposition Zposition Yrotation Xrotation Zrotation
 JOINT Chest
 {
  OFFSET 0.000000 10.540452 0.000464
  CHANNELS 3 Yrotation Xrotation Zrotation
  JOINT Chest2
  {
   OFFSET 0.000000 11.638726 -0.000843
   CHANNELS 3 Yrotation Xrotation Zrotation
   JOINT Chest3
   {
    OFFSET 0.000000 10.516409 0.000000
    CHANNELS 3 Yrotation Xrotation Zrotation
    JOINT Chest4
    {
     OFFSET 0.000000 10.516409 0.000000
     CHANNELS 3 Yrotation Xrotation Zrotation
     JOINT Neck
     {
      OFFSET 0.000000 14.787010 0.000000
      CHANNELS 3 Yrotation Xrotation Zrotation
      JOINT Head
      {
       OFFSET 0.000000 9.788178 -0.002005
       CHANNELS 3 Yrotation Xrotation Zrotation
       End Site
       {
        OFFSET 0.000000 18.731488 -0.001047
       }
      }
     }
     JOINT RightCollar
     {
      OFFSET -3.212580 8.250193 0.000000
      CHANNELS 3 Yrotation Xrotation Zrotation
      JOINT RightShoulder
      {
       OFFSET -14.986189 0.000000 0.000000
       CHANNELS 3 Yrotation Xrotation Zrotation
       JOINT RightElbow
       {
        OFFSET 0.000000 -32.028138 0.000000
        CHANNELS 3 Yrotation Xrotation Zrotation
        JOINT RightWrist
        {
         OFFSET 0.000000 -26.197173 0.000000
         CHANNELS 3 Yrotation Xrotation Zrotation
         End Site
         {
          OFFSET 0.000000 -19.593847 0.000000
         }
        }
       }
      }
     }
     JOINT LeftCollar
     {
      OFFSET 3.212580 8.250193 0.000000
      CHANNELS 3 Yrotation Xrotation Zrotation
      JOINT LeftShoulder
      {
       OFFSET 14.986189 0.000000 0.000000
       CHANNELS 3 Yrotation Xrotation Zrotation
       JOINT LeftElbow
       {
        OFFSET 0.000000 -32.028138 0.000000
        CHANNELS 3 Yrotation Xrotation Zrotation
        JOINT LeftWrist
        {
         OFFSET 0.000000 -26.197173 0.000000
         CHANNELS 3 Yrotation Xrotation Zrotation
         End Site
         {
          OFFSET 0.000000 -19.593847 0.000000
         }
        }
       }
      }
     }
    }
   }
  }
 }
 JOINT RightHip
 {
  OFFSET -8.556308 -0.002274 -0.000232
  CHANNELS 3 Yrotation Xrotation Zrotation
  JOINT RightKnee
  {
   OFFSET 0.000000 -44.305713 0.000220
   CHANNELS 3 Yrotation Xrotation Zrotation
   JOINT RightAnkle
   {
    OFFSET 0.000000 -43.334746 0.000371
    CHANNELS 3 Yrotation Xrotation Zrotation
    JOINT RightToe
    {
     OFFSET 0.000000 -7.615191 17.280741
     CHANNELS 3 Yrotation Xrotation Zrotation
     End Site
     {
      OFFSET 0.000000 -1.619164 7.036159
     }
    }
   }
  }
 }
 JOINT LeftHip
 {
  OFFSET 8.556308 -0.002274 -0.000232
  CHANNELS 3 Yrotation Xrotation Zrotation
  JOINT LeftKnee
  {
   OFFSET 0.000000 -44.305713 0.000220
   CHANNELS 3 Yrotation Xrotation Zrotation
   JOINT LeftAnkle
   {
    OFFSET 0.000000 -43.334746 0.000371
    CHANNELS 3 Yrotation Xrotation Zrotation
    JOINT LeftToe
    {
     OFFSET 0.000000 -7.615191 17.280741
     CHANNELS 3 Yrotation Xrotation Zrotation
     End Site
     {
      OFFSET 0.000000 -1.619164 7.036159
     }
    }
   }
  }
 }
}
MOTION
Frames: 11
Frame Time: 0.008333
-21.644615 94.734661 -37.030652 16.067533 -7.524691 3.276194 -1.965063 5.612935 -0.703055 -0.863768 2.497592 -0.288287 -0.863768 2.497592 -0.288287 -0.646545 1.873606 -0.212650 3.187074 14.489378 -2.964856 7.128546 -9.002277 -6.796522 -6.708840 2.534774 8.069534 38.872141 -49.522365 -72.029058 -8.718737 -8.472383 3.128116 -4.721210 -6.808274 -6.016756 -8.972207 0.584226 -3.457034 -19.614635 -50.214268 38.180610 -3.911363 -3.755890 3.412581 3.424801 -3.061737 16.670505 -10.560668 -13.747453 -4.063694 -2.484725 3.344355 2.840964 -4.757458 3.631780 12.665659 0.172471 -1.097790 0.033548 22.791172 20.699502 -1.061912 7.534047 3.790213 -1.900826 -4.190435 -12.875579 2.641697 0.001797 -0.700748 -0.008020
-21.488580 94.718542 -36.485950 16.045274 -7.657572 3.197996 -2.368704 5.581352 -0.723932 -1.042754 2.484265 -0.292831 -1.042754 2.484265 -0.292831 -0.780752 1.863705 -0.215349 3.405922 14.512858 -2.970447 7.538998 -8.938524 -6.888239 -6.902651 2.615520 8.154103 37.886242 -49.697193 -71.682202 -9.105681 -8.348818 2.990882 -4.697000 -6.780377 -6.059098 -9.065539 0.684873 -3.391418 -19.998622 -49.946551 37.729572 -4.522008 -4.032148 3.182887 3.424240 -2.990436 16.310491 -10.823199 -12.918672 -4.029044 -2.248337 2.507120 3.126473 -4.772975 4.027135 11.985329 0.119936 -1.075741 0.390423 22.842312 20.958970 -0.823059 7.500185 4.097704 -1.816004 -4.150769 -13.051476 2.507199 0.001510 -0.798432 -0.043314
-21.332310 94.716155 -35.931103 16.003841 -7.798524 3.074365 -2.768330 5.552170 -0.725869 -1.220186 2.471921 -0.289057 -1.220186 2.471921 -0.289057 -0.913828 1.854527 -0.211822 3.623692 14.552229 -2.985594 7.949432 -8.843887 -6.995690 -7.070501 2.661197 8.243943 36.897076 -49.839900 -71.316441 -9.516710 -8.201038 2.853526 -4.678864 -6.764794 -6.122155 -9.124183 0.805025 -3.336691 -20.450005 -49.663202 37.308439 -5.121175 -4.339973 2.948643 3.395882 -2.870942 15.931805 -11.101529 -11.937130 -3.982048 -1.985375 1.302660 3.334768 -4.774152 4.943398 11.074397 0.078761 -1.273960 0.922030 22.942546 21.203797 -0.532057 7.445283 4.418996 -1.717590 -4.095661 -13.188790 2.376349 0.001228 -0.916112 -0.082943
-21.169015 94.725177 -35.369280 15.944147 -7.936938 2.906380 -3.130105 5.520046 -0.708807 -1.381053 2.458086 -0.277370 -1.381053 2.458086 -0.277370 -1.034515 1.844203 -0.202439 3.827330 14.610417 -3.014786 8.336668 -8.713705 -7.121882 -7.304151 2.679421 8.359985 35.835016 -49.936129 -70.917656 -9.914891 -8.078471 2.780729 -4.685881 -6.757368 -6.270026 -9.220733 0.924412 -3.288498 -20.891817 -49.363415 36.878523 -5.645012 -4.679980 2.730875 3.271993 -2.730869 15.464808 -11.432726 -10.943064 -3.978401 -1.524376 0.226400 3.563077 -4.896218 6.129735 10.232109 0.090624 -1.742540 1.346618 23.074866 21.427588 -0.186791 7.407429 4.745659 -1.630321 -4.050385 -13.272444 2.253237 0.001109 -1.055189 -0.119425
-20.991581 94.741040 -34.798354 15.888845 -8.067285 2.728927 -3.495404 5.480080 -0.686265 -1.543568 2.440702 -0.263319 -1.543568 2.440702 -0.263319 -1.156449 1.831206 -0.191293 4.029579 14.678736 -3.049071 8.721859 -8.563700 -7.255547 -7.524409 2.714706 8.460357 34.760187 -50.061354 -70.506551 -10.306768 -7.957481 2.725470 -4.709264 -6.749934 -6.465949 -9.284391 1.064218 -3.241993 -21.332021 -49.058257 36.405070 -6.098977 -5.072057 2.512389 3.084895 -2.599564 14.927921 -11.751356 -10.084579 -4.030161 -0.934178 -0.322208 3.937302 -5.191607 7.022386 9.436146 0.123841 -2.204867 1.582302 23.231784 21.636427 0.188650 7.379993 5.096606 -1.552875 -4.034091 -13.313675 2.130346 0.001222 -1.214806 -0.150517
-20.808979 94.762339 -34.214077 15.800360 -8.204733 2.558938 -3.823205 5.443738 -0.666861 -1.689394 2.424866 -0.251133 -1.689394 2.424866 -0.251133 -1.265860 1.819360 -0.181617 4.226158 14.733570 -3.077473 9.095112 -8.439169 -7.376872 -7.788608 2.780581 8.557154 33.607559 -50.202458 -70.069249 -10.650670 -7.881461 2.710843 -4.747525 -6.754814 -6.694020 -9.320528 1.206385 -3.169654 -21.702681 -48.800387 35.799439 -6.484086 -5.476898 2.310445 2.846452 -2.490586 14.329132 -12.061408 -9.338003 -3.926005 -0.357140 -0.565599 4.190292 -5.519859 7.547779 8.672946 0.138266 -2.434463 1.707351 23.433163 21.846429 0.590343 7.360309 5.468395 -1.482613 -4.037389 -13.312878 1.992735 0.001647 -1.384953 -0.171023
-20.633152 94.789792 -33.614775 15.680645 -8.341402 2.408963 -4.140623 5.409997 -0.651666 -1.830556 2.410180 -0.240965 -1.830556 2.410180 -0.240965 -1.371764 1.808376 -0.173476 4.427038 14.772885 -3.090407 9.471831 -8.343973 -7.472039 -8.027193 2.875352 8.614665 32.366700 -50.407390 -69.575820 -10.958510 -7.840102 2.710499 -4.770517 -6.771725 -6.917616 -9.311840 1.358096 -3.096135 -22.071017 -48.551105 35.114641 -6.805300 -5.919707 2.092459 2.630036 -2.421047 13.732076 -12.276581 -8.640616 -3.483519 -0.089242 -0.845172 4.027495 -5.692326 8.007254 7.923203 0.131134 -2.481510 1.814531 23.667952 22.056823 1.002577 7.337619 5.869729 -1.420684 -4.053940 -13.283835 1.838891 0.002382 -1.560921 -0.180804
-20.468142 94.821667 -33.008974 15.495174 -8.460517 2.277147 -4.417839 5.362699 -0.632324 -1.953952 2.389356 -0.229598 -1.953952 2.389356 -0.229598 -1.464353 1.792773 -0.164533 4.625733 14.811578 -3.101893 9.843735 -8.249766 -7.563380 -8.294792 3.016926 8.622938 31.063800 -50.633524 -68.990898 -11.245535 -7.837196 2.676187 -4.763240 -6.788434 -7.120241 -9.321726 1.428996 -3.087918 -22.285828 -48.249058 34.326347 -7.112424 -6.363972 1.866226 2.476075 -2.386464 13.148901 -12.266595 -8.002901 -2.837627 -0.187948 -1.159401 3.572746 -5.743354 8.551119 7.188419 0.122171 -2.502312 1.916943 23.947915 22.238491 1.407034 7.270699 6.298818 -1.360255 -4.020644 -13.222219 1.667723 0.009311 -3.046393 -0.329255
-20.301089 94.854663 -32.401387 15.229660 -8.534182 2.163140 -4.672170 5.295276 -0.609217 -2.067275 2.359497 -0.217085 -2.067275 2.359497 -0.217085 -1.549398 1.770381 -0.154808 4.827622 14.860444 -3.132137 10.227277 -8.133656 -7.689430 -8.532268 3.161110 8.610421 29.729449 -50.862747 -68.360363 -11.524573 -7.843546 2.614303 -4.731010 -6.824222 -7.278694 -9.260547 1.538381 -3.097226 -22.488647 -48.010980 33.466610 -7.462762 -6.817624 1.611904 2.433980 -2.358234 12.650965 -12.043967 -7.503060 -2.328241 -0.427280 -1.391527 3.202700 -5.858509 9.139669 6.535818 0.123542 -2.540799 1.954010 24.278785 22.364720 1.786788 7.188289 6.774225 -1.302010 -3.964271 -13.137482 1.487382 0.018555 -4.408499 -0.449609
-20.122499 94.888941 -31.789408 14.954332 -8.591551 2.056521 -4.904637 5.219433 -0.588535 -2.170880 2.325869 -0.206059 -2.170880 2.325869 -0.206059 -1.627152 1.745160 -0.146259 5.023123 14.924064 -3.168553 10.599244 -7.989583 -7.822469 -8.805116 3.306843 8.617662 28.366894 -51.074857 -67.712611 -11.782328 -7.857448 2.563727 -4.696572 -6.852846 -7.457616 -9.196864 1.651227 -3.078561 -22.565484 -47.815445 32.465950 -7.871927 -7.268487 1.338614 2.491116 -2.328371 12.255586 -11.786360 -7.102055 -2.138050 -0.620478 -1.490400 3.139310 -6.062003 9.630477 6.052175 0.134510 -2.542491 1.862055 24.552180 22.447254 2.136150 7.116614 7.298843 -1.251232 -3.878774 -13.017290 1.306151 0.029035 -5.683846 -0.547597
-19.932489 94.923101 -31.167795 14.657056 -8.627666 1.952226 -5.137633 5.136283 -0.564145 -2.274776 2.288932 -0.193537 -2.274776 2.288932 -0.193537 -1.705130 1.717448 -0.136612 5.231834 14.987754 -3.209177 10.997001 -7.842647 -7.967630 -9.045839 3.436921 8.610589 26.965224 -51.286056 -67.035178 -12.030742 -7.867326 2.511258 -4.663120 -6.877441 -7.627804 -9.090105 1.788136 -3.040467 -22.596657 -47.656727 31.369147 -8.374336 -7.746799 1.043084 2.634386 -2.275938 11.977919 -11.534097 -6.737938 -2.155587 -0.738620 -1.466423 3.299564 -6.247408 9.947181 5.794204 0.153475 -2.498603 1.629682 24.771248 22.491578 2.462995 7.106612 7.875126 -1.203557 -3.803884 -12.871624 1.115864 0.040123 -6.902684 -0.626725
